<svg xmlns="http://www.w3.org/2000/svg" width="50" height="50" viewBox="0 0 24 24" fill="#a684ff">
  <path d="M6.62 10.79a15.053 15.053 0 006.59 6.59l2.2-2.2a1 1 0 011.05-.24 11.72 11.72 0 003.68.59 1 1 0 011 1v3.5a1 1 0 01-1 1A17 17 0 013 5a1 1 0 011-1h3.5a1 1 0 011 1 11.72 11.72 0 00.59 3.68 1 1 0 01-.24 1.05l-2.2 2.2z"/>
  <path d="M15.05 3a9 9 0 014.95 4.95" fill="none" stroke="#a684ff" stroke-width="2" stroke-linecap="round"/>
  <path d="M15.05 6a6 6 0 013 3" fill="none" stroke="#a684ff" stroke-width="2" stroke-linecap="round"/>
</svg>
